<?xml version="1.0" encoding="UTF-8" standalone="no"?>
<!-- Created with Inkscape (http://www.inkscape.org/) -->

<svg
   width="58.138283mm"
   height="26.585785mm"
   viewBox="0 0 58.138283 26.585785"
   version="1.1"
   id="svg329"
   xmlns="http://www.w3.org/2000/svg"
   xmlns:svg="http://www.w3.org/2000/svg">
  <defs
     id="defs326" />
  <g
     id="layer1"
     transform="translate(-123.04576,-223.55522)">
    <g
       id="g20623"
       transform="translate(79.148798,111.90239)">
      <path
         id="path18376"
         style="color:#000000;fill:#374013;fill-opacity:1;stroke-width:1px;stroke-linejoin:round;-inkscape-stroke:none"
         d="m 96.377268,111.65315 c -0.46365,0.0152 -0.93238,0.0791 -1.40043,0.19741 -0.002,6.5e-4 -0.004,0.001 -0.006,0.002 -0.55527,0.1395 -1.0758,0.36663 -1.55856,0.66198 -0.0086,0.005 -0.01702,0.0101 -0.0253,0.0155 -7.1e-4,4.6e-4 -0.001,0.002 -0.002,0.002 -0.0013,0.001 -0.0027,0.003 -0.004,0.004 -0.003,0.002 -0.007,0.004 -0.01,0.006 -0.0373,0.0258 -0.074,0.0531 -0.10749,0.0837 -0.009,0.008 -0.0168,0.0171 -0.0253,0.0253 -0.033,0.032 -0.0637,0.0656 -0.092,0.1018 -6.69e-4,6.6e-4 -0.0013,10e-4 -0.002,0.002 -0.005,0.007 -0.0104,0.0142 -0.0155,0.0212 -0.0318,0.0431 -0.0597,0.0893 -0.0842,0.13694 -0.0055,0.01 -0.01066,0.0195 -0.0155,0.0295 -0.004,0.008 -0.006,0.017 -0.01,0.0253 -0.0142,0.0325 -0.0265,0.0654 -0.0372,0.0992 -0.0014,0.003 -0.0027,0.005 -0.004,0.008 -0.004,0.0151 -0.008,0.0298 -0.0114,0.045 -0.008,0.0335 -0.0167,0.0671 -0.0217,0.10129 -3.5e-4,0.002 3.4e-4,0.004 0,0.006 -0.0024,0.0116 -0.0044,0.0233 -0.006,0.0351 -0.0763,0.72793 -0.16099,1.44392 -0.24392,2.16214 -0.15753,-0.20989 -0.25118,-0.42776 -0.51418,-0.58859 l -1.63245,-1.33739 c -6.65e-4,-6.7e-4 -0.0013,-0.001 -0.002,-0.002 -0.0618,-0.05 -0.13127,-0.0905 -0.20309,-0.12454 -0.008,-0.004 -0.0211,-0.0121 -0.0253,-0.014 -0.72445,-0.3187 -1.54094,-0.45527 -2.43551,-0.45527 -0.7242,0 -1.37219,0.0726 -1.9513,0.2465 -0.002,6.5e-4 -0.004,0.001 -0.006,0.002 -0.0027,6.4e-4 -0.0053,0.001 -0.008,0.002 h -0.002 c -0.49594,0.15698 -1.00027,0.37415 -1.50585,0.65267 -0.26361,0.14487 -0.44799,0.40117 -0.50178,0.69711 l 0.006,-0.0294 c -0.006,0.0266 -0.0131,0.0535 -0.0196,0.0801 -0.18313,-0.24397 -0.25267,-0.57807 -0.50953,-0.75189 l -1.64848,-1.35134 c -0.0026,-0.002 -0.0053,-0.004 -0.008,-0.006 -0.006,-0.004 -0.0119,-0.007 -0.0176,-0.0114 -0.005,-0.004 -0.0102,-0.008 -0.0155,-0.0119 l -0.006,-0.006 -0.004,-0.002 -0.004,-0.004 -0.01,-0.008 c -0.002,-0.002 -0.008,-0.006 -0.008,-0.006 h -0.002 c -0.69844,-0.49729 -1.5602,-0.7152 -2.4939,-0.7152 -0.76082,0 -1.49992,0.14831 -2.17971,0.45889 -8.9e-4,3.9e-4 -10e-4,0.002 -0.002,0.002 -0.60656,0.26521 -1.12988,0.60252 -1.54875,1.02165 -0.0013,6.6e-4 -0.0027,0.001 -0.004,0.002 -0.0893,0.0904 -0.15944,0.1971 -0.20877,0.3142 -0.0021,0.004 -0.0041,0.008 -0.006,0.0119 -0.0304,0.0746 -0.0508,0.15291 -0.0625,0.23255 -0.59089,-0.42342 -1.16157,-0.87703 -1.8402,-1.16944 l -0.005,-0.005 c -6.65e-4,-6.7e-4 -0.0013,-0.001 -0.002,-0.002 -0.0799,-0.0654 -0.16955,-0.11807 -0.26562,-0.15606 -1.20922,-0.47856 -2.53932,-0.70698 -3.96719,-0.71055 -10e-4,-1.8e-4 -0.003,-5.2e-4 -0.004,-5.2e-4 -0.0062,-1.2e-4 -0.0124,-1.2e-4 -0.0186,0 h -0.003 c -0.0027,-2e-5 -0.0053,-2e-5 -0.008,0 -1.424024,0 -2.745337,0.21538 -3.950152,0.66198 -0.0032,5.3e-4 -0.0064,10e-4 -0.0093,0.002 -0.0029,0.001 -0.0059,0.003 -0.0088,0.004 -0.002,7.6e-4 -0.0042,10e-4 -0.0062,0.002 -0.0026,6.5e-4 -0.0052,0.001 -0.0078,0.002 -1.183497,0.44438 -2.227476,1.09722 -3.108854,1.93993 -0.01065,0.008 -0.02188,0.0162 -0.03204,0.0248 -0.0073,0.007 -0.01434,0.0139 -0.02119,0.0212 -0.08717,0.0845 -0.164609,0.17931 -0.248047,0.26768 l -1.140499,-0.93379 c -7.14e-4,-5.9e-4 -0.0013,-0.001 -0.0021,-0.002 -0.01347,-0.0111 -0.0273,-0.0206 -0.04134,-0.031 -0.0082,-0.006 -0.01093,-0.0105 -0.02119,-0.0176 -0.0058,-0.004 -0.01163,-0.008 -0.01757,-0.0119 -0.0064,-0.004 -0.0128,-0.007 -0.01912,-0.0109 -0.822798,-0.58129 -1.801095,-1.02895 -2.920235,-1.36374 l 0.0088,0.002 c -2.36e-4,-9e-5 -0.0015,-0.002 -0.0016,-0.002 -0.0033,-7e-4 -0.0065,-0.001 -0.0098,-0.002 l 0.0016,0.002 c -3.69e-4,-1.1e-4 -6.65e-4,-4.1e-4 -10e-4,-5.2e-4 -1.144513,-0.37201 -2.400317,-0.55085 -3.758943,-0.55397 -0.0012,-1.3e-4 -0.0025,-5.2e-4 -0.0036,-5.2e-4 -0.0076,-1.7e-4 -0.01516,-1.7e-4 -0.02274,0 h -5.17e-4 -0.0016 c -0.0026,-2e-5 -0.0052,-2e-5 -0.0078,0 -1.356563,0 -2.633963,0.18146 -3.826123,0.55449 -1.178873,0.35342 -2.237438,0.91695 -3.136759,1.68775 -0.0046,0.004 -0.009,0.008 -0.01344,0.0119 -6.82e-4,5.9e-4 -0.0014,5.5e-4 -0.0021,0.002 -0.882522,0.75731 -1.579474,1.72343 -2.082044,2.85357 -0.0027,0.005 -0.0053,0.0106 -0.0078,0.016 -0.492602,1.16708 -0.724504,2.50254 -0.724504,3.98787 0,1.49789 0.218594,2.83056 0.681612,3.99252 l -0.0078,-0.0196 c 0.0017,0.005 0.0018,0.0104 0.0036,0.0155 0.002,0.005 0.0041,0.009 0.0062,0.014 5.28e-4,10e-4 0.0011,0.003 0.0016,0.004 0.002,0.005 0.0041,0.009 0.0062,0.0139 3.76e-4,8.9e-4 0.0017,10e-4 0.0021,0.002 0.0025,0.006 0.0051,0.0118 0.0078,0.0176 l -0.0026,-0.0119 c 0.472128,1.11533 1.095651,2.07112 1.880506,2.83187 9.34e-4,9.8e-4 0.0011,0.003 0.0021,0.004 6.26e-4,6e-4 0.0014,10e-4 0.0021,0.002 0.0051,0.005 0.01022,0.0105 0.0155,0.0155 0.0014,0.001 0.0027,0.003 0.0041,0.004 10e-4,9.3e-4 0.0026,10e-4 0.0036,0.002 0.0013,10e-4 0.0027,0.003 0.0041,0.004 0.0017,0.001 0.004,0.002 0.0057,0.004 0.0078,0.007 0.01574,0.0149 0.02377,0.0217 0.0019,0.001 0.0038,0.003 0.0057,0.004 l 1.671733,1.36942 0.0098,0.01 c 0.459415,0.41165 1.023312,0.63776 1.55701,0.91984 -0.05938,-0.0162 -0.12269,-0.01 -0.181901,-0.0269 -0.004,-7.1e-4 -0.0079,-10e-4 -0.01188,-0.002 -0.748208,-0.22992 -1.409354,-0.50819 -1.993677,-0.83044 -0.006,-0.003 -0.01199,-0.007 -0.01809,-0.01 -0.01341,-0.007 -0.02711,-0.0135 -0.04082,-0.0196 l -0.0155,-0.006 c -0.0085,-0.004 -0.01674,-0.008 -0.02532,-0.0119 h -0.0021 c -0.02621,-0.0109 -0.05098,-0.0209 -0.07803,-0.0295 -0.0026,-6.9e-4 -0.0052,-0.001 -0.0078,-0.002 -0.01808,-0.005 -0.03642,-0.0111 -0.05478,-0.0155 l -0.0098,-0.002 c -0.01631,-0.004 -0.03259,-0.008 -0.04909,-0.0114 -0.0033,-7e-4 -0.0065,-0.001 -0.0098,-0.002 -0.03863,-0.007 -0.07763,-0.0102 -0.116789,-0.0119 h 0.01912 c -0.0083,-7.9e-4 -0.01497,-0.001 -0.02325,-0.002 -0.0065,-1.3e-4 -0.01309,-1.3e-4 -0.01964,0 -0.228461,-0.008 -0.451955,0.062 -0.634587,0.19947 -0.401291,0.3013 -0.735254,0.70181 -1.013891,1.17564 -0.0034,0.006 -0.0067,0.013 -0.0098,0.0196 -6.77e-4,10e-4 -0.0014,0.003 -0.0021,0.004 -10e-4,0.002 -4.74e-4,0.004 -0.0016,0.006 l -0.0062,0.0103 c -0.0027,0.004 -0.0053,0.008 -0.0078,0.0114 -0.004,0.008 -0.0081,0.0169 -0.01188,0.0253 -0.0038,0.008 -0.0077,0.016 -0.01137,0.0238 -0.268101,0.55262 -0.390674,1.16388 -0.390674,1.80041 0,1.53719 1.181815,3.36413 2.185217,4.17612 0.589823,0.4773 1.803562,1.09911 1.803562,1.09911 1.621965,0.79755 3.860152,0.64233 5.331719,0.64993 0.0033,3e-5 0.0065,3e-5 0.0098,0 1.272311,-7.3e-4 2.472826,-0.14654 3.601331,-0.44132 0.0054,-0.002 0.01072,-0.004 0.01602,-0.006 1.163635,-0.29913 2.204651,-0.77929 3.087667,-1.45314 0.0012,-8.7e-4 0.0024,-0.002 0.0036,-0.003 l 0.0026,-0.002 c 0.0065,-0.004 0.01285,-0.009 0.01912,-0.0134 0.0019,-0.001 0.0031,-0.004 0.0046,-0.005 0.892025,-0.65016 1.606504,-1.49064 2.116667,-2.48046 7.06e-4,-10e-4 0.0014,-0.003 0.0021,-0.004 0.540463,-1.02671 0.793663,-2.22332 0.794784,-3.54655 0.747267,0.61737 1.556862,1.15412 2.471167,1.53014 0.0668,0.0504 0.138649,0.0916 0.216007,0.12402 0.01397,0.007 0.0236,0.013 0.04134,0.0196 1.211366,0.45485 2.543594,0.67748 3.982184,0.67748 1.43047,0 2.75408,-0.20412 3.96307,-0.63252 1.20635,-0.42743 2.26438,-1.07231 3.13882,-1.91823 0.3403,-0.32084 0.59576,-0.71874 0.87695,-1.09348 0.0288,0.0434 0.0586,0.0857 0.091,0.12609 0.14478,0.24696 0.610943,0.9941 0.900813,1.24783 0.923023,0.93434 1.127107,1.18084 1.726445,1.33891 0.150636,0.0397 0.894352,0.19353 1.048932,0.21012 0.018,0.003 0.0294,0.006 0.0589,0.008 h 0.002 c 1.96282,0.0933 3.12906,-0.0271 3.87108,-0.20308 0.37011,-0.0878 0.64,-0.19091 0.84801,-0.30489 0.0858,-0.047 0.15188,-0.0944 0.21446,-0.14211 l 0.002,-0.002 c 0.0116,-0.007 0.0219,-0.0153 0.0331,-0.0227 0.005,-0.003 0.0103,-0.006 0.0139,-0.009 0.009,-0.007 -0.003,0.002 0.003,-0.003 0.23707,-0.16235 0.37533,-0.37327 0.45424,-0.50488 0.11056,-0.18439 0.19216,-0.37278 0.262,-0.555 0.13337,-0.34797 0.23478,-0.7085 0.32815,-1.01338 l 0.002,-0.008 c 0.0021,-0.004 0.0041,-0.008 0.006,-0.0119 v -0.006 c 0.005,-0.0109 0.0097,-0.0219 0.0139,-0.0331 0.10787,-0.35905 0.227,-0.77782 0.34158,-1.1684 0.10199,0.30859 0.21717,0.6546 0.29714,0.89452 6.61e-4,0.001 0.0013,0.003 0.002,0.004 6.8e-4,0.002 10e-4,0.004 0.002,0.006 3.28e-4,0.001 6.61e-4,0.003 0.001,0.004 -5e-6,10e-4 -5e-6,0.003 0,0.004 6.65e-4,6.7e-4 0.0013,0.001 0.002,0.002 0.001,0.004 0.002,0.008 0.004,0.0119 0.004,0.0111 0.009,0.0181 0.0139,0.0274 0.0625,0.15403 0.124425,0.36128 0.219254,0.50338 1.459236,2.27188 2.413632,2.26142 3.162046,2.51608 0.758142,0.13173 1.65788,0.20645 2.67363,0.13683 0.0033,3e-5 0.0067,3e-5 0.01,0 1.37967,-0.0946 2.37774,-0.24823 3.14864,-0.89038 6.69e-4,-6.6e-4 0.0013,-0.001 0.002,-0.002 0.45845,-0.38261 0.55032,-0.88804 0.62683,-1.19528 0.0874,-0.35134 0.15472,-0.70991 0.2403,-1.02732 0.23049,-0.75998 0.45037,-1.59827 0.675412,-2.51768 l 0.002,-0.006 c 6.9e-4,-0.003 10e-4,-0.005 0.002,-0.008 0.25018,-0.93242 0.48769,-1.894 0.71521,-2.89078 6.9e-4,-0.003 0.001,-0.005 0.002,-0.008 0.25183,-1.00735 0.47041,-1.9728 0.65474,-2.89492 l 0.002,-0.006 c 10e-4,-0.005 10e-4,-0.0105 0.002,-0.0155 l 0.002,-0.0119 c 0.18055,-0.90449 0.3309,-1.72893 0.44545,-2.4629 0.11625,-0.74585 0.18552,-1.3146 0.18552,-1.78335 0,-1.03061 -0.37306,-1.99178 -1.16995,-2.55075 l -0.003,-0.002 -1.675352,-1.37459 h -0.002 c -0.0283,-0.0233 -0.0572,-0.0446 -0.0879,-0.0646 -6.65e-4,-6.7e-4 -0.0013,-0.001 -0.002,-0.002 -0.71523,-0.46538 -1.57593,-0.66973 -2.51148,-0.66973 -0.0131,0 -0.0445,-1.6e-4 -0.0842,0 -0.0247,1.1e-4 -0.0558,-8.8e-4 -0.0894,0 -0.007,-6e-5 -0.0131,-6e-5 -0.0196,0 -0.004,-5e-5 -0.0079,-5e-5 -0.0119,0 z m 1.76268,3.39049 -5.2e-4,0.002 c 0.005,-1.6e-4 0.0123,2e-5 0.0176,0 0.0235,-1e-4 0.0678,0 0.12299,0 0.0027,2e-5 0.0053,2e-5 0.008,0 h 0.0176 c 0.006,3e-5 0.01,0.002 0.0155,0.002 -0.008,0.27133 -0.0462,0.71126 -0.14625,1.3534 -0.11021,0.70609 -0.25472,1.51139 -0.43356,2.40657 -0.17726,0.88629 -0.39287,1.8232 -0.63872,2.80655 -0.0014,0.006 -0.0028,0.0117 -0.004,0.0176 v 0.002 c -0.22316,0.98253 -0.45925,1.93044 -0.70486,2.84582 -0.0015,0.008 -0.0029,0.0168 -0.004,0.0253 -0.002,0.0103 -0.006,0.0207 -0.008,0.031 l 0.006,-0.0289 c -0.22298,0.91537 -0.4392,1.73716 -0.65785,2.4567 v 0.002 c -4.4e-4,10e-4 -0.002,0.003 -0.002,0.004 -0.0014,0.005 -0.0027,0.0103 -0.004,0.0155 -6.89e-4,0.003 -0.0014,0.005 -0.002,0.008 -4.5e-4,0.002 -0.002,0.004 -0.002,0.006 -0.11544,0.42416 -0.18758,0.8166 -0.25166,1.07436 -0.0168,0.0675 -0.0367,0.11347 -0.0568,0.16381 -0.2127,0.15093 -0.71631,0.33193 -1.92598,0.41444 -0.39215,0.0269 -0.67787,0.005 -0.96273,-0.016 -0.0626,-0.18873 -0.12171,-0.36753 -0.19327,-0.58188 v 0.006 c -0.20211,-0.62812 -0.4152,-1.31434 -0.64079,-2.05672 -0.22113,-0.73087 -0.42762,-1.4825 -0.6289,-2.26395 -6.65e-4,-6.7e-4 -0.0013,-10e-4 -0.002,-0.002 v -0.002 c -0.001,-0.004 -0.003,-0.008 -0.004,-0.0119 -0.15168,-0.60731 -0.28149,-1.19485 -0.39274,-1.76165 -0.0012,-0.007 -0.0025,-0.0131 -0.004,-0.0196 -2.5e-4,-10e-4 -7.8e-4,-0.002 -0.001,-0.003 -0.0161,-0.0883 -0.0703,-0.32707 -0.20206,-0.51418 -0.14242,-0.2021 -0.28324,-0.24827 -0.32039,-0.26561 l -1.45883,-1.19735 0.0217,0.0233 c -0.0715,-0.0752 -0.11344,-0.10496 -0.15813,-0.12661 l -0.002,-0.002 c -8.6e-4,-4.2e-4 -0.001,-0.004 -0.002,-0.004 -9e-5,-10e-5 -0.022,-0.0169 -0.0413,-0.0331 -0.0109,-0.004 -0.0502,-0.0428 -0.0543,-0.045 -1.6e-4,-9e-5 -0.002,-0.002 -0.002,-0.002 l -0.004,-0.002 c -0.001,-0.008 -0.001,-0.0726 -0.24236,-0.14469 -0.0581,-0.0173 -0.0743,-0.0141 -0.12299,-0.0212 -7.2e-4,-3.1e-4 -0.006,-0.002 -0.006,-0.002 -4.4e-4,-1.5e-4 -0.0586,-0.0148 -0.0744,-0.0176 -0.0159,-0.003 -0.0281,-0.005 -0.0372,-0.006 -0.0732,-0.008 -0.0879,-0.005 -0.14831,-0.004 h -0.002 c -0.0164,3.1e-4 -0.0619,7.5e-4 -0.11317,0.008 -0.14384,0.0179 -0.12249,0.0252 -0.12299,0.0253 -0.02119,0.005 -0.04207,0.0104 -0.0625,0.0176 -10e-4,3.4e-4 -0.38423,0.22975 -0.38499,0.23048 -0.002,0.003 -0.004,0.005 -0.006,0.008 -3.5e-4,3.5e-4 -0.12635,0.1558 -0.14056,0.17364 -0.006,0.0102 -0.0237,0.0369 -0.0336,0.0548 -0.0116,0.0211 -0.0204,0.0362 -0.0444,0.092 -0.0347,0.081 -0.0557,0.16244 -0.0625,0.19534 -0.009,0.0421 -0.0134,0.0733 -0.0176,0.11678 -6.89e-4,0.003 -0.0014,0.005 -0.002,0.008 -6.89e-4,0.003 -0.0014,0.005 -0.002,0.008 -7.1e-4,0.004 -0.001,0.008 -0.002,0.0119 -0.13163,0.61457 -0.28523,1.25378 -0.45888,1.91616 -0.0014,0.004 -0.0027,0.008 -0.004,0.0114 -7.1e-4,0.003 -0.001,0.005 -0.002,0.008 -6.89e-4,0.003 -0.0014,0.005 -0.002,0.008 -0.22458,0.82807 -0.45988,1.64589 -0.70539,2.44946 -0.0014,0.005 -0.0027,0.0103 -0.004,0.0155 -0.2259,0.78813 -0.44015,1.51846 -0.64285,2.19314 -0.0029,0.009 -0.0056,0.0182 -0.008,0.0274 -0.102,0.32949 -0.20552,0.67288 -0.29507,0.90641 -0.0387,0.10088 -0.0725,0.16664 -0.0899,0.20102 -0.0167,0.009 -0.10899,0.0582 -0.33383,0.11162 -0.36973,0.0878 -1.25933,0.15424 -2.44533,0.14831 -0.15145,-0.43428 -0.31021,-0.90678 -0.4961,-1.55081 v -0.004 c -0.0019,-0.006 -0.0039,-0.0118 -0.006,-0.0176 -0.001,-0.003 -9.7e-4,-0.005 -0.002,-0.008 -0.2217,-0.82529 -0.4434,-1.70636 -0.66611,-2.64687 v -5.2e-4 -5.2e-4 -5.1e-4 c -0.036,-0.14877 -0.11293,-0.2825 -0.21239,-0.39791 -0.031,-0.0542 -0.0665,-0.10647 -0.10697,-0.154 l 0.0646,0.10387 0.0212,0.0269 c -0.0182,-0.02 -0.0357,-0.0406 -0.0553,-0.0594 -0.036,-0.0674 -0.079,-0.15959 -0.18551,-0.23048 -0.002,-0.001 -0.004,-0.003 -0.006,-0.004 -0.0175,-0.0113 -0.0171,-0.005 -0.0331,-0.0134 l -1.5596,-1.27951 c -0.0284,-0.0346 -0.0603,-0.0683 -0.0987,-0.0941 -0.17812,-0.11876 -0.35207,-0.16897 -0.54312,-0.1757 -0.0243,-8.4e-4 -0.0302,-4.5e-4 -0.0408,0 -0.0421,-2.5e-4 -0.0853,0.003 -0.12712,0.008 h -0.002 c -0.0602,0.007 -0.12539,0.0225 -0.20309,0.0486 -0.0027,6.4e-4 -0.0053,0.001 -0.008,0.002 -0.0013,-1e-5 -0.0027,-1e-5 -0.004,0 -0.003,10e-4 -0.007,0.005 -0.01,0.006 -0.004,10e-4 -0.0079,0.003 -0.0119,0.004 -5e-5,2e-5 -0.0388,0.0176 -0.0388,0.0176 l 0.0191,-0.004 c -0.084,0.0325 -0.17257,0.0697 -0.26562,0.14418 -0.18062,0.14456 -0.27321,0.32017 -0.31626,0.42375 -0.0717,0.17243 -0.0862,0.32633 -0.0956,0.39067 -0.0956,0.64979 -0.25265,1.24516 -0.46509,1.79317 -0.38108,0.96032 -0.90509,1.73735 -1.5875,2.38074 -0.0027,0.003 -0.0054,0.005 -0.008,0.008 -9e-4,9e-4 -0.003,0.001 -0.004,0.002 -0.66416,0.64457 -1.45892,1.13721 -2.42207,1.47846 -0.96355,0.34144 -2.05571,0.51521 -3.29696,0.51522 -1.232858,0 -2.316965,-0.18918 -3.278867,-0.55036 -0.418109,-0.15663 -0.801649,-0.34589 -1.16427,-0.555 -0.177565,-0.21261 -0.347736,-0.43154 -0.500228,-0.66766 -0.0036,-0.006 -0.0062,-0.007 -0.0098,-0.0119 -0.05469,-0.082 -0.120703,-0.15602 -0.196887,-0.21859 l -1.599386,-1.31258 c -0.110899,-0.1293 -0.307613,-0.3007 -0.557072,-0.37879 -0.189391,-0.0594 -0.342898,-0.0527 -0.513664,-0.0196 -0.170767,0.0331 -0.356612,0.0988 -0.525549,0.25993 -0.23638,0.22557 -0.309879,0.53452 -0.326078,0.65422 v -0.006 c -7.22e-4,0.003 -0.0014,0.005 -0.0021,0.008 l -0.02739,0.18914 c -3.5e-5,0.003 -3.5e-5,0.007 0,0.0103 -0.0062,0.05 -0.0092,0.10153 -0.0078,0.15193 v 2.08824 c 0,1.06948 -0.198062,1.92182 -0.558623,2.61121 -5.71e-4,0.001 -9.5e-4,0.003 -0.0016,0.004 -0.0034,0.006 -0.0067,0.0117 -0.0098,0.0176 -0.385277,0.75148 -0.894111,1.34537 -1.558562,1.82004 -0.0074,0.006 -0.01463,0.0115 -0.0217,0.0176 -0.0019,-10e-6 -0.0038,-10e-6 -0.0057,0 -0.648836,0.49503 -1.435974,0.86875 -2.387451,1.11156 -0.0026,6.5e-4 -0.0052,10e-4 -0.0078,0.002 -0.951196,0.24847 -1.983695,0.37672 -3.107304,0.37672 -1.62861,0 -2.862473,-0.22337 -3.81062,-0.55655 -0.05321,-0.17509 -0.111584,-0.34143 -0.111621,-0.58188 5.6e-5,-0.38956 0.07216,-0.68339 0.197404,-0.93741 0.03375,-0.0547 0.06618,-0.0857 0.09974,-0.13281 0.511182,0.23696 1.032298,0.46526 1.609204,0.6444 0.0033,10e-4 0.0065,0.003 0.0098,0.004 0.0091,0.003 0.01625,0.007 0.02532,0.01 0.0064,0.002 0.01317,0.004 0.01964,0.006 0.0046,0.001 0.0093,0.003 0.01395,0.004 0.928307,0.27596 1.888295,0.41806 2.867009,0.41806 1.333904,0 2.476469,-0.21976 3.405994,-0.74208 1.015959,-0.57228 1.599902,-1.64331 1.599902,-2.83806 3.2e-5,-0.005 3.2e-5,-0.009 0,-0.0134 v -0.52348 -0.01 c 1.19e-4,-0.0108 2.28e-4,-0.0208 0,-0.0315 -6.56e-4,-0.004 -0.0014,-0.008 -0.0021,-0.0114 v -0.002 -0.002 -0.002 -0.002 -0.002 -0.002 -10e-4 c -4.58e-4,-0.007 -0.0014,-0.0138 -0.0021,-0.0212 -3.1e-4,-0.005 3.79e-4,-0.009 0,-0.0139 v -0.002 c -6.56e-4,-0.004 -0.0014,-0.008 -0.0021,-0.0114 v -5.2e-4 -5.2e-4 -5.1e-4 -5.2e-4 c -5.1e-4,-0.008 -0.0012,-0.0159 -0.0021,-0.0238 -2.61e-4,-0.002 -0.0013,-0.004 -0.0016,-0.006 v -0.004 c -0.0015,-0.0105 -0.0023,-0.0206 -0.0041,-0.031 -6.94e-4,-0.001 -0.0014,-0.003 -0.0021,-0.004 -0.0025,-0.0138 -0.0048,-0.0271 -0.0078,-0.0408 -8.97e-4,-0.004 -0.0032,-0.008 -0.0041,-0.0119 -1.42e-4,-6.2e-4 1.44e-4,-0.001 0,-0.002 v -5.1e-4 -5.2e-4 -5.2e-4 -5.1e-4 c -0.0028,-0.0121 -0.0045,-0.0252 -0.0078,-0.0372 l -0.0021,-0.004 c -0.005,-0.0181 -0.0095,-0.037 -0.0155,-0.0548 -0.0031,-0.008 -0.0063,-0.0156 -0.0098,-0.0232 v -0.002 c -0.0048,-0.0131 -0.01218,-0.0264 -0.01757,-0.0393 -0.0016,-0.004 -0.002,-0.008 -0.0036,-0.0119 -0.002,-0.004 -0.0041,-0.008 -0.0062,-0.0114 l -0.0036,-0.0103 v -0.002 c -3.95e-4,-8e-4 -0.0017,-0.001 -0.0021,-0.002 l -0.0021,-0.004 c -6.89e-4,-0.001 -0.0014,-0.003 -0.0021,-0.004 -0.0052,-0.011 -0.0099,-0.0223 -0.0155,-0.0331 -0.0014,-0.002 -0.0027,-0.004 -0.0041,-0.006 -0.0016,-0.003 -0.0019,-0.007 -0.0036,-0.01 l -0.0021,-0.002 c -0.01004,-0.0182 -0.02037,-0.0373 -0.03152,-0.0548 -0.0012,-6.7e-4 -0.0024,-0.001 -0.0036,-0.002 -0.0081,-0.0126 -0.01662,-0.0245 -0.02532,-0.0367 l -0.0098,-0.0139 c -3.2e-4,-4.5e-4 3.22e-4,-0.002 0,-0.002 l -0.0021,-0.002 c -0.0011,-0.001 -9.53e-4,-0.002 -0.0021,-0.004 -0.0032,-0.004 -0.0065,-0.008 -0.0098,-0.0119 -0.0024,-0.003 -0.0032,-0.007 -0.0057,-0.01 -0.0014,-0.001 -0.0027,-0.003 -0.0041,-0.004 -0.01101,-0.0137 -0.02135,-0.0277 -0.03307,-0.0408 -0.0014,-0.001 -0.0027,-0.003 -0.0041,-0.004 l -0.01344,-0.0139 c -0.0024,-0.002 -0.0054,-0.005 -0.0078,-0.008 -0.0063,-0.007 -0.01315,-0.0132 -0.01964,-0.0196 l -0.0078,-0.008 c -9.63e-4,-9.5e-4 -0.0011,-0.003 -0.0021,-0.004 l -0.0078,-0.006 c -0.01539,-0.0146 -0.03074,-0.0293 -0.04703,-0.0429 -0.0012,-6.7e-4 -0.0024,-0.001 -0.0036,-0.002 l -1.699121,-1.39268 c -6.98e-4,-6.7e-4 -0.0014,-10e-4 -0.0021,-0.002 -0.03694,-0.03 -0.07649,-0.0572 -0.117306,-0.0816 -0.0032,-0.002 -0.0065,-0.004 -0.0098,-0.006 -0.0079,-0.004 -0.01525,-0.007 -0.02325,-0.0114 l -0.01757,-0.0103 c -0.02362,-0.0126 -0.04779,-0.0244 -0.07235,-0.0351 -0.0053,-0.003 -0.01063,-0.005 -0.01602,-0.008 -0.008,-0.003 -0.01726,-0.005 -0.02532,-0.008 l -0.0155,-0.006 c -0.0381,-0.0138 -0.07573,-0.0265 -0.115238,-0.0357 -0.0026,-2e-5 -0.0052,-2e-5 -0.0078,0 -0.09566,-0.0208 -0.195422,-0.0289 -0.293005,-0.0212 -0.0019,6.6e-4 -0.0038,10e-4 -0.0057,0.002 -0.01728,0.002 -0.03555,0.003 -0.05271,0.006 -0.03111,0.004 -0.06348,0.0104 -0.09405,0.0176 -0.0019,6.6e-4 -0.0038,0.001 -0.0057,0.002 -0.01038,0.003 -0.01917,0.005 -0.02946,0.008 -0.0094,0.003 -0.0181,0.007 -0.02739,0.01 h 0.08216 c -0.06,9.3e-4 -0.119338,0.0127 -0.175183,0.0346 -0.0041,9.5e-4 -0.0083,0.002 -0.0124,0.003 l -0.0057,0.002 c -0.0026,6.5e-4 -0.0052,10e-4 -0.0078,0.002 -0.764635,0.33353 -1.757128,0.52503 -2.982764,0.52503 -0.919593,0 -1.784644,-0.13219 -2.61121,-0.39429 -0.002,-7e-4 -0.0037,-0.001 -0.0057,-0.002 -0.283735,-0.10075 -0.548945,-0.22363 -0.806669,-0.35915 -0.357904,-0.45621 -0.679797,-0.98687 -0.949296,-1.62522 -6.98e-4,-6.7e-4 -0.0014,-10e-4 -0.0021,-0.002 -4.04e-4,-0.001 4.03e-4,-0.003 0,-0.004 -0.342874,-0.86761 -0.531234,-1.93998 -0.531234,-3.23443 0,-1.26623 0.195096,-2.32013 0.556555,-3.18534 0.0014,-0.002 0.0027,-0.004 0.0041,-0.006 0.39796,-0.89578 0.91473,-1.60088 1.558561,-2.15232 0.0038,-0.003 0.0076,-0.007 0.01137,-0.01 0.682234,-0.58475 1.476646,-1.01186 2.420008,-1.29294 0.0047,-0.001 0.0093,-0.003 0.01395,-0.004 0.981622,-0.30715 2.047502,-0.46302 3.22616,-0.46302 1.202851,0 2.263039,0.15745 3.187919,0.4594 0.0045,0.001 0.0089,0.003 0.01344,0.004 0.0039,0.001 0.0079,0.003 0.01188,0.004 0.585478,0.17445 1.089092,0.38667 1.543059,0.61701 0.05405,0.0921 0.104934,0.19098 0.139009,0.34003 0.0017,0.01 0.0033,0.0202 0.0052,0.0357 0.0052,0.0435 0.01478,0.10005 0.03152,0.17157 0.01906,0.0814 0.07145,0.25438 0.191202,0.41651 0.08291,0.11226 0.175492,0.19262 0.27957,0.26148 0.08164,0.0537 0.177216,0.0823 0.274918,0.0822 h -0.17725 l 1.536857,1.2578 c 0.08364,0.0681 0.178159,0.12214 0.279053,0.1602 0.01644,0.007 0.03455,0.0145 0.04909,0.0191 0.0198,0.007 0.03999,0.0119 0.06046,0.016 0.0079,0.001 0.01583,0.003 0.02377,0.004 l -0.06253,-0.0155 c 0.30143,0.0895 0.628207,0.0314 0.880566,-0.15606 0.0062,-0.004 0.222684,-0.15668 0.394808,-0.42788 0.272918,-0.42863 0.583993,-0.80977 0.937411,-1.15239 v -5.1e-4 -5.2e-4 -5.2e-4 -5.1e-4 c 0.0075,-0.007 0.01594,-0.0136 0.02325,-0.0212 0.687528,-0.66234 1.493813,-1.1702 2.451013,-1.52962 v 0.002 c 0.959516,-0.35944 2.043756,-0.54466 3.279386,-0.54466 1.23033,0 2.30527,0.19342 3.25975,0.57205 0.0072,0.003 0.01441,0.005 0.0217,0.008 0.008,0.003 0.0153,0.005 0.0233,0.008 0.38678,0.14643 0.7433,0.32144 1.07849,0.5178 0.0339,0.0353 0.0644,0.0695 0.10335,0.10697 0.0755,0.0725 0.22441,0.21326 0.44132,0.31058 0.002,6.8e-4 0.004,0.001 0.006,0.002 0.0342,0.0149 0.0251,2.4e-4 0.0527,0.008 l 0.72295,0.58963 c 0.0069,0.007 0.01395,0.0133 0.0212,0.0196 l 0.016,0.0119 c 0.1529,0.14641 0.27177,0.28837 0.44132,0.45114 0.0781,0.075 0.2256,0.21267 0.43925,0.30851 0.29058,0.13039 0.58317,0.15683 0.9219,0.0233 0.0495,-0.0195 0.0969,-0.0432 0.14263,-0.0703 l 0.002,-0.002 c 0.31241,-0.1794 0.44379,-0.48875 0.48266,-0.60358 0.0521,-0.15393 0.0671,-0.29498 0.0739,-0.38447 0.0155,-0.20397 0.006,-0.39804 -0.01,-0.59583 -0.0159,-0.20728 -0.0461,-0.42594 -0.0739,-0.64285 0.17175,-0.12015 0.33954,-0.24165 0.58756,-0.34934 0.0059,-0.003 0.01179,-0.005 0.0176,-0.008 0.4072,-0.18664 0.84561,-0.28111 1.35186,-0.28111 0.0681,0 0.12012,0.0107 0.18345,0.0139 0.003,0.0229 0.009,0.0386 0.0119,0.0625 0.2265,1.72074 0.417,3.15305 0.57619,4.29069 v 0.002 c 0.0767,0.53688 0.1508,1.16639 0.22221,1.67793 0.0357,0.2557 0.0708,0.48154 0.10955,0.67386 0.0186,0.0921 0.0394,0.18942 0.076,0.29869 0.0141,0.0422 0.0492,0.14073 0.10594,0.23823 -0.0154,-0.0265 0.11417,0.21669 0.33745,0.3607 l 0.28318,0.231 1.32654,1.08985 c 0.0013,10e-6 0.0027,10e-6 0.004,0 0.076,0.0621 0.16144,0.11292 0.25218,0.15038 8.3e-4,3.4e-4 0.001,0.002 0.002,0.002 0.013,0.006 0.0256,0.0107 0.0388,0.0155 0.0039,0.002 0.0079,0.004 0.0119,0.006 0.003,0.001 0.007,0.001 0.01,0.002 0.0339,0.0114 0.0656,0.0189 0.0935,0.0253 l -0.0155,-0.002 c 0.005,10e-4 0.0121,0.003 0.0176,0.004 0.004,7.1e-4 0.0079,0.001 0.0119,0.002 0.28578,0.0609 0.52426,0.0213 0.77153,-0.12299 0.19636,-0.11456 0.3217,-0.27663 0.38447,-0.3731 0.1265,-0.1943 0.1801,-0.3822 0.21497,-0.50591 0.0775,-0.27497 0.13363,-0.5824 0.20723,-0.95343 l 0.002,-0.01 c 0.001,-0.006 0.002,-0.009 0.004,-0.0155 0.22493,-0.87917 0.46149,-1.82109 0.709,-2.83394 v -0.002 c 0.002,-0.01 0.006,-0.0198 0.008,-0.0294 0.20943,-0.8756 0.4166,-1.73904 0.62528,-2.59778 0.26078,-0.12369 0.51857,-0.2426 0.76171,-0.31987 0.002,-7.4e-4 0.005,-0.001 0.008,-0.002 0.323,-0.0949 0.78386,-0.15658 1.36323,-0.15658 0.23888,0 0.43353,0.0288 0.63665,0.0527 0.20463,0.75414 0.406,1.50217 0.59583,2.22674 0.001,0.005 0.003,0.009 0.004,0.014 9.7e-4,0.004 0.001,0.008 0.002,0.0114 0.0013,0.003 0.0026,0.007 0.004,0.0103 0.24679,0.91977 0.46472,1.78449 0.66817,2.59726 0.003,0.0106 0.0063,0.0211 0.01,0.0315 l -0.006,-0.0238 c 0.0871,0.35698 0.20323,0.65173 0.34778,0.89452 0.0726,0.12199 0.15829,0.24016 0.26355,0.34778 0.0402,0.041 0.13503,0.13643 0.26923,0.21498 l 0.36329,0.29869 1.05988,0.8692 c -0.003,-0.003 -0.006,-0.005 0.005,0.006 l 0.006,0.006 c 0.0127,0.0127 0.009,0.004 0.0196,0.0139 0.0175,0.0157 0.0183,0.0143 0.031,0.0233 0.0064,0.006 0.01291,0.0119 0.0196,0.0176 l 0.0294,0.0238 -0.006,-0.006 c -0.003,-0.002 -0.0157,-0.0138 -0.0253,-0.0217 0.0252,0.0152 0.069,0.0511 0.0765,0.0548 0.0142,0.007 0.008,0.01 -0.045,-0.0274 l 0.0682,0.0563 c 3.32e-4,6.7e-4 6.65e-4,0.001 0.001,0.002 0.0929,0.0754 0.19918,0.13197 0.31265,0.17002 0.008,0.003 0.0181,0.007 0.0393,0.0134 0.004,10e-4 0.009,0.003 0.0134,0.004 0.0097,0.003 0.01952,0.006 0.0294,0.008 0.065,0.016 0.12538,0.0249 0.18552,0.0274 0.0103,5e-4 0.0212,-1.9e-4 0.0315,0 0.002,10e-6 0.004,10e-6 0.006,0 0.0314,2.6e-4 0.0488,4.1e-4 0.0568,0 0.0159,-6.6e-4 0.0307,-0.002 0.0465,-0.004 0.0127,-0.001 0.0245,-0.003 0.0357,-0.004 0.0131,-10e-4 0.0256,-0.002 0.0387,-0.004 0.0013,-6.6e-4 0.0027,-0.001 0.004,-0.002 0.0997,-0.0159 0.1942,-0.0412 0.293,-0.0899 6.69e-4,-6.6e-4 0.0013,-10e-4 0.002,-0.002 0.17085,-0.0847 0.294,-0.21124 0.3514,-0.28319 0.11252,-0.14108 0.17529,-0.30936 0.18965,-0.34985 0.0524,-0.1475 0.0777,-0.28 0.0977,-0.40049 0.0418,-0.25186 0.0694,-0.53866 0.0956,-0.84388 0.0527,-0.61284 0.0991,-1.33206 0.13488,-1.60145 -6.9e-4,0.005 0.002,-6.9e-4 0.004,-0.0155 v -5.2e-4 -5.1e-4 -5.2e-4 -5.2e-4 -0.002 c 0.22539,-1.70114 0.42767,-3.43454 0.61546,-5.19141 0.19104,-0.0884 0.38017,-0.1797 0.57826,-0.23048 l 0.008,-0.002 c 10e-4,-3.5e-4 0.003,-0.002 0.004,-0.002 0.004,-6.2e-4 0.0079,-0.001 0.0119,-0.002 0.32278,-0.0815 0.64578,-0.12396 0.97462,-0.13488 z m -42.627887,12.22923 0.01189,-0.004 c -0.0031,10e-4 -0.0067,7.4e-4 -0.0098,0.002 -6.88e-4,2.8e-4 -0.0014,0.002 -0.0021,0.002 z m 13.449307,-11.07891 v 5.2e-4 c -0.0423,-1.5e-4 -0.0916,4.6e-4 -0.14831,0.004 -0.0081,10e-4 -0.01623,0.002 -0.0243,0.004 -1.121678,0.0638 -2.118597,0.61295 -2.761072,1.52601 -8.37e-4,0.001 -0.0028,8.2e-4 -0.0036,0.002 -7.06e-4,10e-4 -0.0014,0.003 -0.0021,0.004 -0.01491,0.0212 -0.0154,0.0237 -0.0041,0.008 -0.685573,0.96055 -0.964799,2.21888 -0.964799,3.699 0,1.50757 0.282085,2.78073 0.964799,3.75998 l -0.01757,-0.0253 c 0.0064,0.0104 0.01291,0.0208 0.01964,0.031 0.0056,0.009 0.01146,0.017 0.01757,0.0253 0.0203,0.027 0.03825,0.0422 0.05684,0.0605 0.0096,0.009 0.02038,0.024 0.02894,0.0315 0.02517,0.0262 0.05064,0.0526 0.07855,0.076 6.94e-4,0.001 0.0014,0.003 0.0021,0.004 l 1.624707,1.33222 c 0.717195,0.88415 1.777765,1.37511 2.947105,1.37511 1.22472,0 2.32671,-0.55953 2.9962,-1.55701 3.7e-4,-5.3e-4 0.002,-0.002 0.002,-0.002 v -0.002 c 0.005,-0.007 0.0108,-0.0145 0.0155,-0.0217 l 0.002,-0.006 c 0.66257,-0.97165 0.93948,-2.22083 0.93948,-3.68918 0,-0.004 1e-5,-0.008 0,-0.0139 v -0.002 c -0.002,-1.47296 -0.27938,-2.72591 -0.96273,-3.6835 l -0.002,-0.004 c -2.9e-4,-3.4e-4 -0.004,-0.003 -0.004,-0.004 -8e-4,-9.4e-4 -0.002,-0.004 -0.004,-0.006 -0.002,-0.002 -0.009,-0.01 -0.0155,-0.0176 -0.005,-0.006 -0.0112,-0.0114 -0.016,-0.0176 -0.0146,-0.0184 -0.0327,-0.0333 -0.0486,-0.0506 -0.0314,-0.0343 -0.0597,-0.0721 -0.0956,-0.10181 -7.1e-4,-5.9e-4 -10e-4,-0.001 -0.002,-0.002 v -5.2e-4 -5.2e-4 -5.1e-4 -5.2e-4 l -0.32815,-0.26768 c -0.20643,-0.20436 -0.44486,-0.46893 -0.80408,-0.65939 l -0.46974,-0.38241 c -0.6961,-0.91761 -1.76207,-1.42265 -2.93522,-1.42265 -0.007,0 -0.0404,-0.002 -0.0822,-0.002 z m -15.092101,0.002 5.17e-4,5.1e-4 c -0.04278,0 -0.09368,-8.3e-4 -0.150378,0.002 h -0.0021 c -6.69e-4,3e-5 -0.0014,-2e-5 -0.0021,0 -0.0031,1.2e-4 -0.0062,4e-4 -0.0093,5.2e-4 h -0.0016 c -1.190161,0.0479 -2.253353,0.45897 -2.985348,1.27124 -0.0033,0.003 -0.0066,0.005 -0.0098,0.008 -6.16e-4,6.9e-4 -0.0014,0.001 -0.0021,0.002 -0.0012,10e-4 -0.0024,0.003 -0.0036,0.004 -0.749976,0.84342 -1.068668,1.99677 -1.068668,3.3104 0,1.45051 0.292806,2.67587 1.082104,3.53156 6.98e-4,6.7e-4 0.0014,0.001 0.0021,0.002 0.03155,0.0336 0.06591,0.0646 0.101803,0.0935 l 1.679484,1.37666 c 0.742856,0.71408 1.727023,1.09192 2.788977,1.09192 1.084747,-1e-5 2.066149,-0.25939 2.826184,-0.86093 0.257038,-0.20301 0.397761,-0.52112 0.377238,-0.84801 l 0.0021,0.0315 v -6.22081 c -3.68e-4,-0.0105 -0.0011,-0.021 -0.0021,-0.0315 -2.8e-4,-0.004 3.36e-4,-0.009 0,-0.0134 l -0.0021,-0.014 c -0.0013,-0.0188 -0.0038,-0.0377 -0.0062,-0.0563 -0.0043,-0.0366 -0.0093,-0.0736 -0.01757,-0.10955 l -0.0021,-0.006 c -0.0058,-0.0252 -0.01344,-0.0518 -0.02119,-0.0765 v -5.1e-4 -5.2e-4 -5.2e-4 -5.1e-4 -5.2e-4 -5.2e-4 -5.1e-4 -5.2e-4 c -0.0072,-0.022 -0.01665,-0.0447 -0.02532,-0.0661 -0.01314,-0.0325 -0.02642,-0.0626 -0.04289,-0.0935 -0.0014,-0.002 -0.0027,-0.004 -0.0041,-0.006 -0.01097,-0.02 -0.02282,-0.0391 -0.03514,-0.0584 -0.01999,-0.0315 -0.04122,-0.0629 -0.0646,-0.092 -0.0012,-10e-4 -0.0024,-0.003 -0.0036,-0.004 -0.0081,-0.01 -0.01686,-0.0194 -0.02532,-0.0289 -0.03367,-0.0389 -0.0703,-0.0742 -0.109554,-0.10749 l -0.0057,-0.006 -1.697571,-1.39061 c -0.04279,-0.0351 -0.08843,-0.066 -0.136426,-0.0935 -0.01288,-0.007 -0.01554,-0.009 -0.0062,-0.004 -0.0032,-0.002 -0.0065,-0.004 -0.0098,-0.006 -5.2e-4,-2.8e-4 -0.0015,2.8e-4 -0.0021,0 -0.26988,-0.15199 -0.560383,-0.25224 -0.896069,-0.34934 -6.98e-4,-6.7e-4 -0.0014,-10e-4 -0.0021,-0.002 -0.435818,-0.13475 -0.899214,-0.1757 -1.41025,-0.1757 z m 6.417697,0.31161 c 4.43e-4,0.002 0.0011,0.004 0.0016,0.006 8.5e-5,4.7e-4 10e-6,9.9e-4 0,0.002 -9.2e-4,-0.004 -9.14e-4,-0.004 -0.0016,-0.007 z m 0.0016,0.008 c 4.78e-4,0.001 0.0017,0.002 0.0021,0.004 -1.2e-5,0.002 -1.2e-5,0.004 0,0.006 -0.0018,-0.009 -8.3e-4,-0.003 -0.0021,-0.009 z m 15.514814,0.10026 c 0.061,0.004 0.15729,0.0229 0.16795,0.0217 0.0187,-0.002 -0.02,0.023 -0.15813,-0.0176 z m 12.04681,2.96519 c -0.0034,0.003 -0.0067,0.007 -0.01,0.01 -0.0053,-0.002 -0.01063,-0.004 -0.016,-0.006 0.008,-0.001 0.0195,-0.003 0.0258,-0.004 z m -17.23667,0.008 h 5.1e-4 0.002 c 0.0149,-8e-5 0.0587,-1.4e-4 0.10542,0 0.1722,0.47779 0.31213,1.04764 0.31213,1.85157 0,1.22537 -0.24643,2.06825 -0.60358,2.58227 -5.7e-4,8.3e-4 -9.5e-4,0.003 -0.002,0.004 -6.69e-4,6.6e-4 -0.0013,0.001 -0.002,0.002 l -0.002,0.002 c -6.69e-4,6.6e-4 -0.0013,10e-4 -0.002,0.002 -6.9e-4,0.001 -0.001,0.003 -0.002,0.004 -0.0013,0.002 -0.0027,0.004 -0.004,0.006 -0.34773,0.52161 -0.63162,0.67592 -1.33997,0.67592 -0.006,0 -0.01,-0.002 -0.0155,-0.002 -0.17128,-0.4914 -0.30903,-1.07041 -0.30903,-1.88257 0,-1.2269 0.25253,-2.06495 0.5979,-2.54507 0.001,-0.002 0.002,-0.004 0.004,-0.006 0.0013,-0.002 0.0027,-0.004 0.004,-0.006 0.34583,-0.49607 0.63297,-0.65583 1.25574,-0.68782 z m 17.18758,0 h 5.1e-4 c 0.002,-3e-4 0.003,4.5e-4 0.006,0 l 0.0119,0.0274 c -0.132816,0.0578 -0.234047,0.17034 -0.2775,0.30851 l -0.0506,-0.12299 c 0.002,-0.003 0.008,-0.0176 0.008,-0.0176 -2e-5,4e-5 0.0838,-0.09 0.0837,-0.0899 -8e-5,7e-5 0.10557,-0.0682 0.10542,-0.0682 -1.4e-4,7e-5 0.057,-0.0217 0.0568,-0.0217 -3.9e-4,1.2e-4 0.0433,-0.0129 0.0563,-0.0155 z m 0.63872,0.185 0.0527,0.0455 c -0.0229,-0.0192 -0.0358,-0.0324 -0.0465,-0.0413 -9.1e-4,-7.2e-4 -0.005,-0.003 -0.006,-0.004 z m -33.642392,0.0491 v 5.1e-4 3.39825 c -0.305592,0.14702 -0.645743,0.27543 -1.205094,0.27543 -0.02771,0 -0.04915,-0.005 -0.07596,-0.006 -0.09603,-0.35362 -0.183968,-0.73961 -0.183968,-1.30431 0,-0.99672 0.227444,-1.60341 0.564824,-1.98283 0.194652,-0.21795 0.576755,-0.27688 0.900203,-0.38085 z m 23.833172,2.54713 c 0.0319,0.0504 0.0479,0.09 0.0444,0.0806 -0.002,-0.006 -0.0231,-0.0444 -0.0444,-0.0806 z m 1.34669,1.13119 c -0.009,-0.002 0.0515,0.004 0.13436,0.0527 l 0.006,0.004 c -0.0643,-0.0298 -0.134,-0.055 -0.14056,-0.0563 z m 15.78508,4.60903 c -3.3e-4,3e-5 0.17595,0.0156 0.1757,0.0155 -2e-5,-1e-5 0.0106,0.007 0.0119,0.008 -0.0763,-0.0234 -0.157102,-0.0282 -0.23564,-0.014 -0.07847,0.0144 -0.152354,0.0473 -0.21549,0.0961 0.007,-0.006 0.0169,-0.016 0.0563,-0.0393 0.0197,-0.0116 0.10054,-0.0453 0.0997,-0.045 -2.2e-4,7e-5 0.03,-0.006 0.0594,-0.0119 0.0238,-0.005 0.0482,-0.01 0.0481,-0.01 z m -17.1018,0.79685 c 0.001,0.002 0.005,0.003 0.006,0.006 0.006,0.0104 0.0122,0.0249 0.0176,0.0331 z m -20.44733,4.41833 0.02739,0.0134 c -0.01836,9.9e-4 -0.03664,0.003 -0.05478,0.006 z" />
      <path
         id="path393-6-9-8-4-0"
         style="font-size:3.175px;font-family:Baloo;-inkscape-font-specification:'Baloo, Normal';fill:#dbff4c;fill-opacity:1;stroke:#dbff4c;stroke-width:0.534719;stroke-linecap:round;stroke-linejoin:round;stroke-dasharray:none;stroke-opacity:1"
         d="m 96.339047,112.48803 c -0.39612,0.0128 -0.79213,0.0663 -1.18819,0.16576 -0.45269,0.11315 -0.88025,0.29805 -1.28768,0.54712 -0.20372,1.94673 -0.43066,3.85767 -0.67973,5.73648 -0.0962,0.72839 -0.16427,2.76174 -0.33998,2.71847 -0.0984,-0.0246 -0.31281,-0.28597 -0.45034,-0.85609 -0.20372,-0.81491 -0.4251,-1.68597 -0.67428,-2.61402 -0.24907,-0.95073 -0.51312,-1.92754 -0.78475,-2.9235 -0.1585,-0.52061 -0.52285,-0.90593 -1.08872,-1.15504 -0.56595,-0.24897 -1.24152,-0.37024 -2.03374,-0.37024 -0.65653,0 -1.21078,0.0684 -1.66347,0.20448 -0.43013,0.13582 -0.87363,0.32575 -1.32635,0.57471 -0.24897,1.01864 -0.49697,2.048 -0.74604,3.0893 -0.24907,1.01864 -0.48649,1.96883 -0.71289,2.85166 -0.16213,0.81127 -0.23527,1.26008 -0.39858,1.2245 -0.10587,-0.0235 -0.24993,-1.43615 -0.40831,-2.54534 -0.15849,-1.1318 -0.34832,-2.56264 -0.57472,-4.28301 -0.11314,-0.86015 -0.4298,-1.45654 -0.95051,-1.7961 -0.49804,-0.36222 -1.14202,-0.54156 -1.93427,-0.54156 -0.63385,0 -1.2252,0.12127 -1.76846,0.37024 -0.52071,0.2264 -0.93769,0.50103 -1.25452,0.8179 0.10887,0.76208 0.24426,1.75358 0.0802,1.81862 -0.19785,0.0781 -0.35142,-0.20726 -0.76508,-0.59729 -0.76967,-0.76967 -1.69879,-1.36102 -2.785336,-1.76847 -1.086549,-0.43013 -2.295346,-0.64102 -3.630892,-0.64102 -1.335557,0 -2.544353,0.20041 -3.630892,0.60787 -1.086549,0.40745 -2.026232,0.99885 -2.818504,1.76846 -0.409487,0.3973 -0.772348,0.84208 -1.086217,1.33528 -0.06417,0.10053 -0.147582,0.16352 -0.147582,0.16352 -0.07807,-0.0246 -0.06417,-0.1124 -0.08876,-0.23132 -0.06524,-0.31902 -0.180842,-0.59675 -0.346284,-0.83096 -0.249072,-0.38489 -0.597281,-0.7331 -1.050081,-1.05008 -0.72433,-0.5206 -1.621963,-0.93757 -2.685872,-1.25451 -1.041312,-0.33955 -2.207983,-0.50841 -3.49826,-0.50841 -1.267637,0 -2.439335,0.16897 -3.525884,0.50841 -1.063877,0.31687 -1.993068,0.81309 -2.78534,1.49215 -0.769675,0.65642 -1.382067,1.4959 -1.834792,2.51455 -0.430128,1.01864 -0.646582,2.21691 -0.646582,3.59774 0,1.40346 0.205973,2.61225 0.613429,3.63089 0.430128,1.01864 0.984418,1.85813 1.663468,2.51455 0.701765,0.63386 1.50409,1.10892 2.409551,1.42583 0.928058,0.2942 1.899333,0.4421 2.917972,0.4421 1.335546,0 2.470691,-0.20597 3.398781,-0.61343 v 0.54713 c 0,0.90549 -0.364357,1.55996 -1.088709,1.96741 -0.724331,0.40746 -1.695615,0.61343 -2.917983,0.61343 -0.882821,0 -1.743312,-0.12673 -2.580864,-0.3758 -0.814912,-0.24897 -1.548643,-0.55525 -2.205064,-0.91736 -0.271637,0.20372 -0.525201,0.49942 -0.751601,0.88421 -0.203728,0.40745 -0.303934,0.87202 -0.303934,1.39267 0,1.245 0.591399,2.13707 1.768476,2.68035 1.177088,0.56584 2.792324,0.85105 4.852244,0.85105 1.199727,0 2.318819,-0.13731 3.360088,-0.40895 1.063877,-0.27164 1.982556,-0.69909 2.752188,-1.28767 0.79224,-0.56594 1.41522,-1.2946 1.867945,-2.17742 0.452693,-0.86015 0.679734,-1.88957 0.679734,-3.0893 v -2.10984 l 0.02567,-0.19015 c 0.01925,-0.14459 0.12213,-0.0855 0.200627,0.0364 0.301581,0.4666 0.64733,0.89395 1.033611,1.2802 0.79224,0.74701 1.731955,1.32233 2.818504,1.72979 1.086538,0.40745 2.295335,0.61343 3.630892,0.61343 1.335546,0 2.544343,-0.18993 3.630892,-0.57472 1.086551,-0.38478 2.015701,-0.95511 2.785341,-1.70216 0.79235,-0.747 1.40474,-1.66011 1.83479,-2.74666 0.24159,-0.62305 0.41409,-1.29357 0.51953,-2.00981 0.0235,-0.16042 0.0385,-0.1817 0.0706,-0.18502 0,0 0.0567,-0.0214 0.0888,0.11732 0.22854,0.96485 0.45805,1.87112 0.68605,2.71858 0.33955,1.1771 0.62968,2.03758 0.87876,2.58085 0.2264,0.47537 0.78037,1.06088 1.35951,1.08872 3.80517,0.18074 4.33275,-0.48638 4.33275,-0.48638 0.28543,-0.14042 0.50916,-0.96282 0.71289,-1.61926 0.20372,-0.67909 0.42018,-1.41282 0.64658,-2.20505 0.24907,-0.81491 0.48648,-1.64381 0.71288,-2.4814 0.1832,-0.69609 0.34618,-1.36813 0.48564,-2.01904 0.0331,-0.15347 -0.002,-0.13657 0.0588,-0.13176 0.0984,0.008 0.0984,0.0128 0.13218,0.18405 0.11689,0.59098 0.25388,1.20247 0.41173,1.83415 0.20373,0.79224 0.41462,1.55754 0.64102,2.30455 0.2264,0.747 0.44286,1.43856 0.64659,2.07242 0.20372,0.61118 0.37259,1.12338 0.50841,1.53083 0.33954,0.95073 1.46862,1.27403 3.36562,1.14398 1.33414,-0.0909 2.09488,-0.25356 2.58639,-0.66316 0.27185,-0.2265 0.3434,-0.98281 0.54713,-1.72979 0.2264,-0.747 0.44788,-1.58649 0.67428,-2.51454 0.24907,-0.92806 0.48648,-1.88886 0.71288,-2.88482 0.24897,-0.99597 0.46553,-1.94617 0.64659,-2.85166 0.18105,-0.9055 0.32896,-1.7239 0.4421,-2.44823 0.11315,-0.72433 0.17133,-1.26809 0.17133,-1.63031 0,-0.83759 -0.26405,-1.4234 -0.78476,-1.76295 -0.52071,-0.33955 -1.17518,-0.50841 -1.96742,-0.50841 -0.0567,0 -0.11475,-0.002 -0.17133,0 z m -42.647808,4.54276 c 0.06737,-0.003 0.135177,0 0.204476,0 0.452801,0 0.822077,0.0417 1.116355,0.13261 0.316874,0.0909 0.554396,0.1802 0.712887,0.27078 v 6.25045 c -0.543274,0.43012 -1.276973,0.64658 -2.205063,0.64658 -0.860256,0 -1.572876,-0.28522 -2.138748,-0.85106 -0.543275,-0.58851 -0.817906,-1.53875 -0.817906,-2.85166 0,-1.15448 0.274631,-2.03602 0.817906,-2.64718 0.530548,-0.59418 1.302041,-0.9134 2.310061,-0.95051 z m 15.103865,0 c 0.05775,-0.003 0.117424,0 0.176885,0 0.950731,0 1.684386,0.36938 2.205064,1.11635 0.520602,0.72433 0.784753,1.76979 0.784753,3.12799 0,1.35819 -0.264151,2.40862 -0.784753,3.15562 -0.498038,0.747 -1.221181,1.12187 -2.171922,1.12187 -0.95073,0 -1.694952,-0.36435 -2.238216,-1.08873 -0.520709,-0.747 -0.784754,-1.80795 -0.784754,-3.18877 0,-1.35819 0.264045,-2.40362 0.784754,-3.12798 0.488091,-0.70027 1.162105,-1.07258 2.028189,-1.11635 z" />
    </g>
  </g>
</svg>
